<svg width="199" height="29" fill="none" xmlns="http://www.w3.org/2000/svg"><g clip-path="url(#clip0_7531_7888)"><path d="M198.119 1.801h-4.648v18.173L180.775 1.8h-4.988v25.94h4.648V8.702l13.452 19.04h4.232V1.802zm-42.17 5.13l4.307 10.839h-8.502l4.195-10.839zm-2.646-5.13l-10.278 25.94h4.799l2.305-5.924h11.714l2.343 5.925h4.913L158.82 1.8h-5.517zm-35.066 0v25.94h18.364v-4.046h-13.603v-7.298h11.45v-4.046h-11.45V5.847h13.603V1.801h-18.364zM94.204 16.433h6.537c3.061 0 4.724 1.518 4.724 3.685 0 2.168-1.663 3.722-4.724 3.722h-6.537v-7.407zm0-3.902V5.703h5.668c3.099 0 4.799 1.12 4.799 3.396s-1.7 3.432-4.799 3.432h-5.668zm-4.648 15.21h11.45c5.592 0 9.106-2.709 9.106-7.225a6.125 6.125 0 00-1.226-3.937 6.609 6.609 0 00-3.497-2.386 5.902 5.902 0 002.883-2.198 5.493 5.493 0 00.971-3.402c0-4.407-3.098-6.828-8.917-6.828h-10.77v25.977zM59.97 22.685c2.116 3.323 6.726 5.419 11.336 5.419 5.592 0 10.278-3.143 10.278-8.238 0-5.636-5.252-6.611-9.636-7.55-3.665-.795-5.743-1.265-5.743-3.541 0-2.06 2.002-3.468 4.912-3.468 3.174 0 5.177 1.553 6.688 3.793l3.552-2.926a11.658 11.658 0 00-4.391-3.612 12.245 12.245 0 00-5.66-1.175c-5.48 0-9.787 3.07-9.787 7.876 0 5.058 4.383 6.214 8.502 7.153 4.119.94 6.877 1.3 6.877 3.938 0 2.493-2.305 3.83-5.366 3.83a9.653 9.653 0 01-4.515-1.249 9.134 9.134 0 01-3.307-3.195l-3.74 2.945zM42.322 6.93l4.308 10.84h-8.503l4.195-10.839zM39.677 1.8L29.399 27.74h4.799l2.305-5.924h11.676l2.343 5.925h4.874L45.156 1.8h-5.48zm-21.841 0v10.55h-13V1.8H0v25.94h4.837V16.398h12.999v11.345h4.836V1.8h-4.836z" fill="#000"/></g><defs><clipPath id="clip0_7531_7888"><path fill="#fff" transform="translate(0 .5)" d="M0 0h198.384v28H0z"/></clipPath></defs></svg>